<?xml version="1.0" encoding="UTF-8" standalone="no"?>
<svg
   xmlns:dc="http://purl.org/dc/elements/1.1/"
   xmlns:cc="http://creativecommons.org/ns#"
   xmlns:rdf="http://www.w3.org/1999/02/22-rdf-syntax-ns#"
   xmlns:svg="http://www.w3.org/2000/svg"
   xmlns="http://www.w3.org/2000/svg"
   width="720"
   height="720"
   viewBox="0 0 190.5 190.5"
   version="1.1"
   id="svg14">
  <metadata
     id="metadata20">
    <rdf:RDF>
      <cc:Work
         rdf:about="">
        <dc:format>image/svg+xml</dc:format>
        <dc:type
           rdf:resource="http://purl.org/dc/dcmitype/StillImage" />
        <dc:title></dc:title>
      </cc:Work>
    </rdf:RDF>
  </metadata>
  <defs
     id="defs18" />
  <g
     transform="translate(90.669 -507.469)"
     id="g12">
    <path
       d="M4.583 650.342c26.304 0 47.627-21.324 47.627-47.628s-21.323-47.628-47.627-47.628-47.627 21.324-47.627 47.628 21.323 47.628 47.627 47.628z"
       fill="#fff"
       clip-path="none"
       mask="none"
       id="path2" />
    <path
       d="M-36.664 626.539l-41.24-71.43c-8.362 14.479-12.765 30.904-12.765 47.625s4.401 33.146 12.762 47.625 20.387 26.503 34.868 34.86 30.908 12.755 47.628 12.75l41.24-71.43v-.011c-4.177 7.244-10.188 13.26-17.428 17.443a47.62 47.62 0 0 1-47.632.007 47.62 47.62 0 0 1-17.433-17.437z"
       fill="#229342"
       clip-path="none"
       mask="none"
       id="path4" />
    <path
       d="M45.826 626.536l-41.239 71.43c16.72.003 33.146-4.398 47.626-12.757s26.504-20.384 34.863-34.865a95.24 95.24 0 0 0 12.755-47.627c-.003-16.72-4.408-33.145-12.772-47.623H4.58l-.01.007a47.62 47.62 0 0 1 23.819 6.372c7.243 4.179 13.257 10.19 17.439 17.431a47.62 47.62 0 0 1-.001 47.633z"
       fill="#fbc116"
       clip-path="none"
       mask="none"
       id="path6" />
    <path
       d="M4.583 640.43c20.824 0 37.705-16.881 37.705-37.706s-16.881-37.705-37.705-37.705-37.705 16.881-37.705 37.705 16.881 37.706 37.705 37.706z"
       fill="#1a73e8"
       clip-path="none"
       mask="none"
       id="path8" />
    <path
       d="M4.583 555.097h82.479c-8.358-14.481-20.381-26.507-34.861-34.868a95.23 95.23 0 0 0-47.625-12.76c-16.72.001-33.145 4.404-47.623 12.767a95.23 95.23 0 0 0-34.856 34.872l41.24 71.43.011.006a47.62 47.62 0 0 1-.015-47.633c4.179-7.242 10.193-13.256 17.434-17.436s15.456-6.381 23.818-6.379z"
       fill="#e33b2e"
       clip-path="none"
       mask="none"
       id="path10" />
  </g>
</svg>
